<?xml version="1.0" standalone="no"?>
<!DOCTYPE svg PUBLIC "-//W3C//DTD SVG 20010904//EN"
 "http://www.w3.org/TR/2001/REC-SVG-20010904/DTD/svg10.dtd">
<svg version="1.0" xmlns="http://www.w3.org/2000/svg"
 width="512.000000pt" height="512.000000pt" viewBox="0 0 512.000000 512.000000"
 preserveAspectRatio="xMidYMid meet">
<metadata>
Created by potrace 1.14, written by Peter Selinger 2001-2017
</metadata>
<g transform="translate(0.000000,512.000000) scale(0.100000,-0.100000)"
fill="#000000" stroke="none">
<path d="M3815 5104 c-389 -67 -715 -334 -861 -706 -22 -55 -34 -101 -60 -214
-3 -16 -7 -85 -8 -153 -2 -137 16 -228 75 -383 97 -249 347 -651 619 -994 30
-38 62 -77 70 -88 8 -10 32 -39 54 -65 177 -212 213 -247 263 -255 87 -14 112
2 242 154 350 409 619 797 765 1103 146 304 171 482 111 771 -33 161 -156 377
-290 512 -136 137 -361 267 -516 298 -13 3 -49 10 -79 16 -81 18 -292 20 -385
4z m377 -328 c287 -78 498 -285 578 -567 31 -109 34 -238 9 -336 -35 -133
-164 -385 -313 -608 -103 -156 -308 -431 -408 -550 -9 -11 -25 -31 -36 -45
-17 -21 -21 -22 -34 -9 -15 15 -224 279 -265 335 -12 16 -36 49 -55 74 -183
244 -393 616 -444 785 -29 97 -25 257 10 370 90 290 323 502 616 560 82 16
266 12 342 -9z"/>
<path d="M3894 4465 c-34 -7 -85 -25 -115 -40 -53 -27 -189 -154 -189 -177 0
-6 -6 -19 -13 -27 -23 -27 -50 -131 -52 -200 -6 -142 40 -258 139 -356 93 -93
190 -135 319 -140 135 -6 250 39 346 133 105 102 151 217 146 359 -5 133 -46
226 -139 319 -120 119 -276 164 -442 129z m195 -333 c50 -37 66 -70 66 -132
-1 -48 -6 -64 -29 -95 -36 -46 -79 -65 -139 -60 -87 7 -141 66 -142 156 0 98
70 162 169 154 28 -2 61 -12 75 -23z"/>
<path d="M1710 3833 c-8 -3 -40 -16 -70 -29 -63 -26 -797 -320 -850 -340 -139
-51 -685 -275 -713 -292 -20 -11 -45 -39 -56 -61 -21 -40 -21 -45 -18 -1523
l2 -1483 23 -33 c32 -45 86 -70 142 -67 31 2 283 98 818 313 l772 310 773
-309 c424 -171 790 -312 813 -315 36 -5 132 31 860 322 450 180 831 336 847
346 15 11 36 37 47 58 20 39 20 60 18 1044 -3 997 -3 1005 -24 1032 -39 52
-70 69 -134 69 -63 0 -95 -16 -134 -69 -21 -27 -21 -38 -26 -964 l-5 -936
-620 -248 c-341 -137 -628 -251 -637 -254 -17 -5 -18 45 -20 863 l-3 868 -22
31 c-31 43 -63 62 -116 69 -58 8 -106 -12 -143 -61 l-29 -37 -3 -869 -2 -869
-23 7 c-12 3 -40 14 -62 24 -22 10 -65 27 -95 39 -30 12 -64 26 -75 31 -11 4
-96 38 -190 75 -93 37 -183 73 -200 80 -16 7 -165 66 -330 132 l-300 119 -3
1267 c-1 697 0 1267 3 1267 3 0 164 -64 357 -141 426 -171 424 -170 475 -157
122 31 162 185 71 272 -11 10 -160 75 -332 143 -171 69 -324 131 -341 138 -16
7 -102 41 -189 76 -149 58 -221 76 -256 62z m-112 -1660 l-3 -1266 -295 -119
c-162 -65 -302 -121 -310 -125 -8 -3 -139 -55 -290 -115 -261 -105 -371 -148
-377 -148 -2 0 -2 570 -1 1267 l3 1267 630 253 c347 138 633 252 638 253 4 0
6 -570 5 -1267z"/>
</g>
</svg>
